<svg width="144" height="127" viewBox="0 0 144 127" fill="none" xmlns="http://www.w3.org/2000/svg">
<path d="M49.5 63.5002H27V45.3573C27 35.3503 35.0718 27.2145 45 27.2145H47.2499C48.1369 27.2167 49.0156 27.0422 49.8355 26.701C50.6555 26.3598 51.4004 25.8588 52.0277 25.2266C52.6549 24.5944 53.152 23.8435 53.4905 23.017C53.829 22.1906 54.0021 21.3049 54 20.4108V6.80373C54.0021 5.90965 53.829 5.02396 53.4905 4.19753C53.152 3.37109 52.6549 2.62021 52.0277 1.988C51.4004 1.35579 50.6555 0.854721 49.8355 0.513557C49.0156 0.172401 48.1369 -0.00212097 47.2499 2.28882e-05H45C20.1375 2.28882e-05 0 20.2973 0 45.3571V113.393C0 120.905 6.04686 127 13.5 127H49.5C56.9532 127 63 120.905 63 113.393V77.1073C63 69.595 56.9532 63.5002 49.5 63.5002ZM130.5 63.5002L108 63.5002V45.3573C108 35.3503 116.072 27.2145 126 27.2145H128.25C129.137 27.2167 130.016 27.0422 130.836 26.701C131.655 26.3598 132.4 25.8588 133.028 25.2266C133.655 24.5944 134.152 23.8435 134.491 23.017C134.829 22.1906 135.002 21.3049 135 20.4108V6.80373C135.002 5.90965 134.829 5.02396 134.491 4.19753C134.152 3.37109 133.655 2.62021 133.028 1.988C132.4 1.35579 131.655 0.854721 130.836 0.513557C130.016 0.172401 129.137 -0.00212097 128.25 2.28882e-05H126C101.138 2.28882e-05 81 20.2973 81 45.3571V113.393C81 120.905 87.0469 127 94.5 127H130.5C137.953 127 144 120.905 144 113.393V77.1073C144 69.595 137.953 63.5002 130.5 63.5002Z" fill="#2A94F4"/>
</svg>
