<svg width="58" height="58" viewBox="0 0 58 58" fill="none" xmlns="http://www.w3.org/2000/svg">
<g filter="url(#filter0_d_874_327)">
<rect x="4" width="50" height="50" rx="20" fill="#0085A1"/>
</g>
<g filter="url(#filter1_i_874_327)">
<circle cx="29" cy="25" r="18" fill="#F5B501"/>
</g>
<g filter="url(#filter2_i_874_327)">
<path d="M18.333 14.1333H26.2485C26.6545 14.1333 26.8574 14.2796 26.8574 14.5723C26.8574 14.7044 26.763 14.9451 26.5742 15.2944C26.3854 15.6437 26.1636 15.9316 25.9087 16.1582C25.6916 16.3564 25.3423 16.4556 24.8608 16.4556H16.4497C16.3081 16.4556 16.2043 16.4508 16.1382 16.4414C16.0721 16.4225 16.0107 16.38 15.9541 16.314C15.9069 16.2479 15.8833 16.1535 15.8833 16.0308C15.8833 15.6815 16.1571 15.2803 16.7046 14.8271C17.2616 14.3646 17.8044 14.1333 18.333 14.1333ZM15.8975 33.5327V26.7075C15.8975 26.3677 16.0107 26.1411 16.2373 26.0278C16.4733 25.9146 16.8368 25.8579 17.3276 25.8579C17.8468 25.8579 18.2103 25.9146 18.418 26.0278C18.6351 26.1411 18.7437 26.3677 18.7437 26.7075V32.0317C18.7437 32.4943 18.6445 32.8389 18.4463 33.0654C18.2103 33.3486 17.8752 33.5988 17.4409 33.8159C17.0161 34.033 16.6668 34.1416 16.3931 34.1416C16.0627 34.1416 15.8975 33.9386 15.8975 33.5327ZM15.8975 24.4277V18.1548C15.8975 17.8149 16.0107 17.5884 16.2373 17.4751C16.4733 17.3618 16.8368 17.3052 17.3276 17.3052C17.8563 17.3052 18.2244 17.3618 18.4321 17.4751C18.6398 17.5789 18.7437 17.8055 18.7437 18.1548V22.1055C18.7437 22.4925 18.9372 22.686 19.3242 22.686H25.0874C25.4933 22.686 25.6963 22.8324 25.6963 23.125C25.6963 23.2572 25.6019 23.5026 25.4131 23.8613C25.2243 24.2106 25.0024 24.4985 24.7476 24.7251C24.5304 24.9139 24.1812 25.0083 23.6997 25.0083H16.478C16.091 25.0083 15.8975 24.8148 15.8975 24.4277ZM32.4648 14.459V32.0317C32.4648 32.4943 32.3657 32.8389 32.1675 33.0654C31.9315 33.3486 31.5964 33.5988 31.1621 33.8159C30.7373 34.033 30.388 34.1416 30.1143 34.1416C29.7839 34.1416 29.6187 33.9386 29.6187 33.5327V15.96C29.6187 15.5635 29.7178 15.2472 29.916 15.0112C30.1615 14.7186 30.4966 14.4543 30.9214 14.2183C31.3462 13.9728 31.6955 13.8501 31.9692 13.8501C32.2996 13.8501 32.4648 14.0531 32.4648 14.459ZM40.083 33.561L33.5693 24.2578C33.3711 23.984 33.272 23.7339 33.272 23.5073C33.272 23.1769 33.4372 22.7993 33.7676 22.3745L39.106 15.2944C39.5496 14.6997 39.9508 14.3127 40.3096 14.1333C40.6777 13.9445 41.2158 13.8501 41.9238 13.8501C42.443 13.8501 42.7026 13.9917 42.7026 14.2749C42.7026 14.4826 42.5658 14.7563 42.292 15.0962L36.6421 22.2329C36.3683 22.5822 36.2314 22.8607 36.2314 23.0684C36.2314 23.2666 36.373 23.5545 36.6562 23.9321L42.292 31.4512C42.4902 31.7249 42.5894 31.9751 42.5894 32.2017C42.5894 32.466 42.5091 32.735 42.3486 33.0088C41.8766 33.764 41.3763 34.1416 40.8477 34.1416C40.6117 34.1416 40.3568 33.9481 40.083 33.561Z" fill="#0085A1"/>
</g>
<defs>
<filter id="filter0_d_874_327" x="0" y="0" width="58" height="58" filterUnits="userSpaceOnUse" color-interpolation-filters="sRGB">
<feFlood flood-opacity="0" result="BackgroundImageFix"/>
<feColorMatrix in="SourceAlpha" type="matrix" values="0 0 0 0 0 0 0 0 0 0 0 0 0 0 0 0 0 0 127 0" result="hardAlpha"/>
<feOffset dy="4"/>
<feGaussianBlur stdDeviation="2"/>
<feComposite in2="hardAlpha" operator="out"/>
<feColorMatrix type="matrix" values="0 0 0 0 0 0 0 0 0 0 0 0 0 0 0 0 0 0 0.25 0"/>
<feBlend mode="normal" in2="BackgroundImageFix" result="effect1_dropShadow_874_327"/>
<feBlend mode="normal" in="SourceGraphic" in2="effect1_dropShadow_874_327" result="shape"/>
</filter>
<filter id="filter1_i_874_327" x="11" y="7" width="36" height="40" filterUnits="userSpaceOnUse" color-interpolation-filters="sRGB">
<feFlood flood-opacity="0" result="BackgroundImageFix"/>
<feBlend mode="normal" in="SourceGraphic" in2="BackgroundImageFix" result="shape"/>
<feColorMatrix in="SourceAlpha" type="matrix" values="0 0 0 0 0 0 0 0 0 0 0 0 0 0 0 0 0 0 127 0" result="hardAlpha"/>
<feOffset dy="4"/>
<feGaussianBlur stdDeviation="2"/>
<feComposite in2="hardAlpha" operator="arithmetic" k2="-1" k3="1"/>
<feColorMatrix type="matrix" values="0 0 0 0 0 0 0 0 0 0 0 0 0 0 0 0 0 0 0.25 0"/>
<feBlend mode="normal" in2="shape" result="effect1_innerShadow_874_327"/>
</filter>
<filter id="filter2_i_874_327" x="15.8828" y="13.8501" width="26.8203" height="24.2915" filterUnits="userSpaceOnUse" color-interpolation-filters="sRGB">
<feFlood flood-opacity="0" result="BackgroundImageFix"/>
<feBlend mode="normal" in="SourceGraphic" in2="BackgroundImageFix" result="shape"/>
<feColorMatrix in="SourceAlpha" type="matrix" values="0 0 0 0 0 0 0 0 0 0 0 0 0 0 0 0 0 0 127 0" result="hardAlpha"/>
<feOffset dy="4"/>
<feGaussianBlur stdDeviation="2"/>
<feComposite in2="hardAlpha" operator="arithmetic" k2="-1" k3="1"/>
<feColorMatrix type="matrix" values="0 0 0 0 0 0 0 0 0 0 0 0 0 0 0 0 0 0 0.25 0"/>
<feBlend mode="normal" in2="shape" result="effect1_innerShadow_874_327"/>
</filter>
</defs>
</svg>
